<?xml version="1.0" encoding="iso-8859-1"?>
<!-- Generator: Adobe Illustrator 19.0.0, SVG Export Plug-In . SVG Version: 6.00 Build 0)  -->
<svg version="1.1" id="Capa_1" xmlns="http://www.w3.org/2000/svg" xmlns:xlink="http://www.w3.org/1999/xlink" x="0px" y="0px"
	 viewBox="0 0 512 512" style="enable-background:new 0 0 512 512;" xml:space="preserve">
<path style="fill:#FFDA2D;" d="M437.02,74.98C388.668,26.629,324.381,0,256,0S123.332,26.629,74.98,74.98
	C26.629,123.332,0,187.619,0,256s26.629,132.668,74.98,181.02C123.332,485.371,187.619,512,256,512s132.668-26.629,181.02-74.98
	C485.371,388.668,512,324.381,512,256S485.371,123.332,437.02,74.98z"/>
<g>
	<path style="fill:#FF9F00;" d="M512,256c0-68.381-26.629-132.668-74.98-181.02C388.668,26.629,324.381,0,256,0v512
		c68.381,0,132.668-26.629,181.02-74.98C485.371,388.668,512,324.381,512,256z"/>
	<path style="fill:#FF9F00;" d="M272.067,241h-32.134c-18.307,0-33.2-14.894-33.2-33.199c0-18.307,14.894-33.2,33.2-33.2H304.2
		c8.284,0,15-6.716,15-15s-6.716-15-15-15H271v-33.2c0-8.284-6.716-15-15-15s-15,6.716-15,15v33.2h-1.066
		c-34.849,0-63.2,28.352-63.2,63.2c0,34.849,28.352,63.199,63.2,63.199h32.134c18.306,0,33.199,14.894,33.199,33.2
		s-14.894,33.2-33.199,33.2h-64.267c-8.284,0-15,6.716-15,15s6.716,15,15,15H241v33.201c0,8.284,6.716,15,15,15s15-6.716,15-15
		V367.4h1.067c34.849,0,63.199-28.352,63.199-63.2S306.916,241,272.067,241z"/>
</g>
<g>
	<path style="fill:#F77E00;" d="M304.2,174.601c8.284,0,15-6.716,15-15s-6.716-15-15-15H271v-33.2c0-8.284-6.716-15-15-15v78.2
		H304.2z"/>
	<path style="fill:#F77E00;" d="M272.067,241H256v30h16.067c18.306,0,33.199,14.894,33.199,33.2s-14.894,33.2-33.199,33.2H256
		v78.201c8.284,0,15-6.716,15-15V367.4h1.067c34.849,0,63.199-28.352,63.199-63.2S306.916,241,272.067,241z"/>
</g>
<g>
</g>
<g>
</g>
<g>
</g>
<g>
</g>
<g>
</g>
<g>
</g>
<g>
</g>
<g>
</g>
<g>
</g>
<g>
</g>
<g>
</g>
<g>
</g>
<g>
</g>
<g>
</g>
<g>
</g>
</svg>
